# xmcd
#
# Track frame offsets:
#	150
#	21397
#	35160
#	56615
#	81592
#	94062
#	111702
#	120392
#	138090
#	151695
#	166517
#
# Disc length: 2428 seconds
#
# Revision: 3
# Processed by: cddbd v1.5.2PL0 Copyright (c) Steve Scherf et al.
# Submitted via: EasyCDDAExtractor 10.2.0.1
#
DISCID=8b097a0b
DTITLE=Austin Lounge Lizards - Small Minds
DYEAR=1995
DGENRE=Country
TTITLE0=Shallow End Of The Gene Pool
TTITLE1=Half A Man
TTITLE2=Old Blevins
TTITLE3=Big Tex's Girl
TTITLE4=Do Not Go To Tennessee
TTITLE5=Truckload Of Art
TTITLE6=Gingrich The Newt
TTITLE7=Irving
TTITLE8=Life Is Hard, But Life Is Hardest When You're Dumb
TTITLE9=Bonfire Of The Inanities
TTITLE10=Mourning Edition
EXTD=LABEL =Sugar Hill Records, Inc.\nID =SUG-CD-3903\nUPC =015891-390321\n
EXTD=COPYRIGHT =1995
EXTT0=
EXTT1=
EXTT2=
EXTT3=
EXTT4=
EXTT5=
EXTT6=
EXTT7=
EXTT8=
EXTT9=
EXTT10=
PLAYORDER=
